<svg xmlns="http://www.w3.org/2000/svg" xmlns:xlink="http://www.w3.org/1999/xlink" version="1.1" x="0px" y="0px" viewBox="0 0 100 125" enable-background="new 0 0 100 100" xml:space="preserve"><path fill-rule="evenodd" clip-rule="evenodd" d="M85.932,31.219l-7.73,27.03c-0.431,1.608-2.083,2.562-3.692,2.131l-0.264-0.071  c2.801,1.96,4.638,5.205,4.638,8.883c0,5.987-4.854,10.84-10.841,10.84c-5.987,0-10.84-4.853-10.84-10.84  c0-3.399,1.567-6.43,4.015-8.418H46.069c2.448,1.988,4.015,5.019,4.015,8.418c0,5.987-4.853,10.841-10.84,10.841  c-5.988,0-10.84-4.853-10.84-10.841c0-3.399,1.567-6.43,4.015-8.418h-0.941c-0.839,0-1.595-0.348-2.138-0.905  c-0.557-0.543-0.905-1.299-0.905-2.138V32.64c0-0.15,0.033-0.29,0.057-0.433c-0.074-0.262-0.126-0.533-0.126-0.818v-1.2  c0-0.234,0.032-0.459,0.083-0.677c-0.048-1.283-1.096-2.311-2.391-2.311h-2.945c-0.03,0.001-0.058,0.009-0.088,0.009h-6.037  c-1.668,0-3.021-1.353-3.021-3.021v-1.2c0-1.668,1.353-3.021,3.021-3.021h6.037c0.018,0,0.034,0.005,0.051,0.005h6.548  c3.314,0,6,2.686,6,6v1.195h0.069v7.242h-0.079v19.188h36.404l5.487-19.188H45.291v-0.046c-0.034,0.001-0.065,0.01-0.099,0.01  c-1.987,0-3.597-1.611-3.597-3.598c0-1.987,1.611-3.598,3.597-3.598c0.034,0,0.065,0.009,0.099,0.01v-0.02h36.05  c0.421-0.075,0.862-0.069,1.302,0.049l1.159,0.31C85.41,27.958,86.363,29.61,85.932,31.219z M39.243,65.595  c-1.987,0-3.598,1.611-3.598,3.598s1.611,3.598,3.598,3.598c1.987,0,3.597-1.611,3.597-3.598S41.23,65.595,39.243,65.595z   M68.044,65.595c-1.987,0-3.598,1.611-3.598,3.598c0,1.987,1.611,3.598,3.598,3.598c1.987,0,3.597-1.611,3.597-3.598  C71.641,67.206,70.03,65.595,68.044,65.595z"/><text x="0" y="115" fill="#000000" font-size="5px" font-weight="bold" font-family="'Helvetica Neue', Helvetica, Arial-Unicode, Arial, Sans-serif">Created by Alex Bickov</text><text x="0" y="120" fill="#000000" font-size="5px" font-weight="bold" font-family="'Helvetica Neue', Helvetica, Arial-Unicode, Arial, Sans-serif">from the Noun Project</text></svg>